<?xml version="1.0" encoding="UTF-8"?>
<svg width="81px" height="65px" viewBox="0 0 81 65" version="1.1" xmlns="http://www.w3.org/2000/svg" xmlns:xlink="http://www.w3.org/1999/xlink">
    <title>icons/Research and Strategy</title>
    <g id="icons/Research-and-Strategy" stroke="none" stroke-width="1" fill="none" fill-rule="evenodd">
        <g id="Group-23">
            <path d="M79.887951,55.4965 C79.887951,60.19062 62.425161,63.9961 40.883454,63.9961 C19.342395,63.9961 1.878957,60.19062 1.878957,55.4965 C1.878957,50.80278 19.342395,46.99812 40.883454,46.99812 C62.425161,46.99812 79.887951,50.80278 79.887951,55.4965 Z" id="Shape-707-copy-3" fill="#E2A219" style="mix-blend-mode: multiply;"></path>
            <rect id="Rectangle" fill-opacity="0" fill="#D8D8D8" x="0" y="0" width="81" height="65"></rect>
            <path d="M58.921,48.7473 C55.932,51.7363 51.265,52.7223 45.774,51.5193 C43.991,51.1293 42.192,50.5233 40.413,49.7243 C44.51,48.1643 48.547,45.5033 52.065,41.9993 C52.56,42.2963 53.133,42.4773 53.751,42.4773 C55.571,42.4773 57.052,40.9963 57.052,39.1763 C57.052,38.3523 56.738,37.6073 56.237,37.0283 C57.81,34.7843 59.032,32.4923 59.895,30.2333 C60.695,32.0163 61.303,33.8153 61.693,35.6013 C62.894,41.0883 61.909,45.7583 58.921,48.7473 M24.759,46.8943 C22.048,44.1843 21.227,39.9333 22.29,35.1223 C23.94,37.9383 26.041,40.6533 28.521,43.1323 C31.004,45.6163 33.724,47.7203 36.546,49.3723 C31.833,50.4123 27.536,49.6713 24.759,46.8943 M20.133,25.8803 C18.933,20.3913 19.917,15.7213 22.906,12.7323 C25.064,10.5743 28.097,9.4613 31.685,9.4613 C33.065,9.4613 34.527,9.6263 36.053,9.9603 C37.836,10.3503 39.634,10.9563 41.414,11.7553 C37.296,13.3233 33.238,16.0023 29.707,19.5333 C28.431,20.8103 27.257,22.1753 26.2,23.5943 C25.867,23.4793 25.514,23.4043 25.141,23.4043 C23.321,23.4043 21.84,24.8853 21.84,26.7053 C21.84,27.6433 22.237,28.4863 22.868,29.0883 C22.522,29.8113 22.205,30.5313 21.932,31.2463 C21.131,29.4653 20.524,27.6643 20.133,25.8803 M26.975,26.7053 C26.975,27.7173 26.153,28.5393 25.141,28.5393 C24.129,28.5393 23.307,27.7173 23.307,26.7053 C23.307,25.6933 24.129,24.8713 25.141,24.8713 C26.153,24.8713 26.975,25.6933 26.975,26.7053 M55.062,36.1493 C54.659,35.9743 54.217,35.8753 53.751,35.8753 C51.931,35.8753 50.45,37.3563 50.45,39.1763 C50.45,39.8473 50.653,40.4693 50.998,40.9893 C47.148,44.8163 42.763,47.4823 38.574,48.8243 C35.404,47.1493 32.333,44.8703 29.558,42.0953 C26.787,39.3233 24.509,36.2553 22.834,33.0893 C23.177,32.0203 23.617,30.9313 24.138,29.8333 C24.456,29.9353 24.789,30.0063 25.141,30.0063 C26.961,30.0063 28.442,28.5253 28.442,26.7053 C28.442,25.7883 28.065,24.9583 27.46,24.3603 C28.454,23.0383 29.552,21.7643 30.745,20.5713 C34.616,16.7013 39.035,14.0063 43.254,12.6553 C46.423,14.3303 49.495,16.6103 52.269,19.3843 C55.042,22.1573 57.321,25.2293 58.997,28.3983 C58.179,30.9443 56.861,33.5743 55.062,36.1493 M51.917,39.1763 C51.917,38.1643 52.739,37.3423 53.751,37.3423 C54.763,37.3423 55.585,38.1643 55.585,39.1763 C55.585,40.1873 54.763,41.0103 53.751,41.0103 C52.739,41.0103 51.917,40.1873 51.917,39.1763 M57.068,14.5853 C59.817,17.3343 60.594,21.6153 59.545,26.3713 C57.893,23.5493 55.79,20.8303 53.306,18.3473 C50.822,15.8633 48.103,13.7593 45.281,12.1073 C49.994,11.0683 54.292,11.8093 57.068,14.5853 M63.127,35.2873 C62.612,32.9373 61.741,30.5663 60.564,28.2433 C62.275,22.3873 61.516,16.9573 58.105,13.5473 C55.068,10.5093 50.412,9.4913 44.989,10.6763 C44.462,10.7913 43.934,10.9323 43.404,11.0863 C41.083,9.9113 38.714,9.0403 36.366,8.5263 C30.372,7.2163 25.223,8.3403 21.869,11.6953 C18.514,15.0503 17.389,20.1993 18.7,26.1933 C19.214,28.5423 20.086,30.9143 21.263,33.2373 C19.52,39.1743 20.348,44.5593 23.722,47.9323 C25.933,50.1443 29.003,51.2863 32.601,51.2863 C33.945,51.2863 35.363,51.1253 36.837,50.8033 C37.364,50.6883 37.892,50.5473 38.421,50.3933 C40.743,51.5683 43.112,52.4393 45.46,52.9533 C47.092,53.3093 48.662,53.4863 50.149,53.4863 C54.125,53.4863 57.517,52.2263 59.958,49.7853 C63.313,46.4303 64.438,41.2813 63.127,35.2873" id="Fill-1" fill="#333333"></path>
            <path d="M45.9078,10.5535 C45.9078,11.8125 44.8868,12.8325 43.6288,12.8325 C42.3698,12.8325 41.3488,11.8125 41.3488,10.5535 C41.3488,9.2945 42.3698,8.2745 43.6288,8.2745 C44.8868,8.2745 45.9078,9.2945 45.9078,10.5535" id="Fill-3" fill="#D3D4D6"></path>
            <path d="M45.9078,10.5535 C45.9078,11.8125 44.8868,12.8325 43.6288,12.8325 C42.3698,12.8325 41.3488,11.8125 41.3488,10.5535 C41.3488,9.2945 42.3698,8.2745 43.6288,8.2745 C44.8868,8.2745 45.9078,9.2945 45.9078,10.5535 Z" id="Stroke-5" stroke="#000000" stroke-width="1.077" stroke-linecap="round" stroke-linejoin="round"></path>
            <polygon id="Fill-7" fill="#231F20" points="56.2921 22.9773 56.0911 18.0203 52.0641 21.1843"></polygon>
            <path d="M48.4371,57.8299 C63.8931,60.7669 76.2571,51.3389 65.7481,32.1729" id="Stroke-9" stroke="#FFFFFF" stroke-width="0.927" stroke-dasharray="2.563,2.563,2.563,2.563,2.563,2.563"></path>
            <path d="M34.2501,2.6873 C28.9621,-0.2847 19.9461,1.7773 15.9791,5.7433 C12.0131,9.7093 11.8131,16.4873 13.3631,23.5753" id="Stroke-11" stroke="#FFFFFF" stroke-width="0.927" stroke-dasharray="2.563,2.563,2.563,2.563,2.563,2.563"></path>
            <polygon id="Fill-13" fill="#FFFFFF" points="37.3087 4.3523 34.9287 0.0003 32.7247 4.6233"></polygon>
            <path d="M36.523,37.6805 L36.523,35.5595 C33.801,33.8815 32.121,30.8875 32.121,27.6805 C32.121,22.5705 36.278,18.4125 41.388,18.4125 C46.498,18.4125 50.655,22.5705 50.655,27.6805 C50.655,30.8875 48.975,33.8815 46.253,35.5595 L46.253,37.6805 L36.523,37.6805 Z" id="Fill-15" fill="#FFFFFF"></path>
            <path d="M41.3883,17.9495 C36.0233,17.9495 31.6583,22.3145 31.6583,27.6795 C31.6583,30.9595 33.3313,34.0285 36.0593,35.8145 L36.0593,37.2165 L36.0593,38.1435 L36.9873,38.1435 L45.7893,38.1435 L46.7173,38.1435 L46.7173,37.2165 L46.7173,35.8145 C49.4453,34.0285 51.1183,30.9595 51.1183,27.6795 C51.1183,22.3145 46.7533,17.9495 41.3883,17.9495 M41.3883,18.8765 C46.2423,18.8765 50.1913,22.8255 50.1913,27.6795 C50.1913,30.8455 48.5163,33.7235 45.7893,35.2965 L45.7893,37.2165 L36.9873,37.2165 L36.9873,35.2965 C34.2603,33.7235 32.5853,30.8445 32.5853,27.6795 C32.5853,22.8255 36.5343,18.8765 41.3883,18.8765" id="Fill-17" fill="#231F20"></path>
            <path d="M44.6895,35.7342 L42.1215,35.7342 L42.1215,30.4952 C43.3845,30.1672 44.3225,29.0282 44.3225,27.6652 C44.3225,26.0462 43.0065,24.7302 41.3885,24.7302 C39.7705,24.7302 38.4535,26.0462 38.4535,27.6652 C38.4535,29.0282 39.3925,30.1672 40.6545,30.4952 L40.6545,35.7342 L38.0865,35.7342 C37.0755,35.7342 36.2525,36.5562 36.2525,37.5682 C36.2525,37.9832 36.3965,38.3612 36.6285,38.6692 C36.3965,38.9762 36.2525,39.3542 36.2525,39.7692 C36.2525,40.7802 37.0755,41.6032 38.0865,41.6032 L44.6895,41.6032 C45.7015,41.6032 46.5235,40.7802 46.5235,39.7692 C46.5235,39.3542 46.3805,38.9762 46.1475,38.6692 C46.3805,38.3612 46.5235,37.9832 46.5235,37.5682 C46.5235,36.5562 45.7015,35.7342 44.6895,35.7342" id="Fill-19" fill="#333333"></path>
            <path d="M39.3302,27.6648 C39.3302,26.5298 40.2532,25.6068 41.3882,25.6068 C42.5232,25.6068 43.4462,26.5298 43.4462,27.6648 C43.4462,28.7998 42.5232,29.7228 41.3882,29.7228 C40.2532,29.7228 39.3302,28.7998 39.3302,27.6648" id="Fill-21" fill="#FBB348"></path>
        </g>
    </g>
</svg>