<?xml version="1.0" encoding="UTF-8"?>
<svg width="81px" height="65px" viewBox="0 0 81 65" version="1.1" xmlns="http://www.w3.org/2000/svg" xmlns:xlink="http://www.w3.org/1999/xlink">
    <title>icons/User Experience Design</title>
    <defs>
        <polygon id="path-1" points="12 54.1705 68.167 54.1705 68.167 8.0005 12 8.0005"></polygon>
    </defs>
    <g id="icons/User-Experience-Design" stroke="none" stroke-width="1" fill="none" fill-rule="evenodd">
        <g id="Group-21">
            <rect id="Rectangle" fill-opacity="0" fill="#D8D8D8" x="0" y="0" width="81" height="65"></rect>
            <path d="M79.887951,55.4965 C79.887951,60.19062 62.425161,63.9961 40.883454,63.9961 C19.342395,63.9961 1.878957,60.19062 1.878957,55.4965 C1.878957,50.80278 19.342395,46.99812 40.883454,46.99812 C62.425161,46.99812 79.887951,50.80278 79.887951,55.4965 Z" id="Shape-707-copy-3" fill="#E2A219" style="mix-blend-mode: multiply;"></path>
            <path d="M67.4169,45.7813 C67.4169,46.7513 67.2089,47.2753 65.7539,47.2743 C65.6599,47.2833 14.8199,47.2833 14.9079,47.2723 C12.6949,47.2733 12.7509,46.7353 12.7497014,45.2383 C12.7489,33.5133 12.7519,9.8443 12.7539,9.7343 C12.7659,8.9583 14.2239,8.7503 14.2239,8.7503 L66.0639,8.7513 C66.0639,8.7513 67.4029,9.0113 67.4029,9.8353 C67.4069,15.8353 67.4169,39.8003 67.4169,45.7813" id="Fill-1" fill="#FFFFFF"></path>
            <path d="M67.4169,45.7813 C67.4169,46.7513 67.2089,47.2753 65.7539,47.2743 C65.6599,47.2833 14.8199,47.2833 14.9079,47.2723 C12.6949,47.2733 12.7509,46.7353 12.7497014,45.2383 C12.7489,33.5133 12.7519,9.8443 12.7539,9.7343 C12.7659,8.9583 14.2239,8.7503 14.2239,8.7503 L66.0639,8.7513 C66.0639,8.7513 67.4029,9.0113 67.4029,9.8353 C67.4069,15.8353 67.4169,39.8003 67.4169,45.7813 Z" id="Stroke-3" stroke="#000000" stroke-width="1.5"></path>
            <mask id="mask-2" fill="white">
                <use xlink:href="#path-1"></use>
            </mask>
            <g id="Clip-6"></g>
            <polygon id="Fill-5" fill="#000000" mask="url(#mask-2)" points="59.479 18.7705 62.87 18.7705 62.87 17.3955 59.479 17.3955"></polygon>
            <polygon id="Fill-7" fill="#000000" mask="url(#mask-2)" points="55.535 25.8715 62.877 25.8715 62.877 24.5115 55.535 24.5115"></polygon>
            <polygon id="Fill-8" fill="#000000" mask="url(#mask-2)" points="55.53 29.4275 59.048 29.4275 59.048 28.0635 55.53 28.0635"></polygon>
            <polygon id="Fill-9" fill="#000000" mask="url(#mask-2)" points="55.529 22.2995 62.878 22.2995 62.878 20.9755 55.529 20.9755"></polygon>
            <polygon id="Fill-10" fill="#000000" mask="url(#mask-2)" points="55.516 32.9675 62.876 32.9675 62.876 31.6325 55.516 31.6325"></polygon>
            <polygon id="Fill-11" fill="#5A5A5A" mask="url(#mask-2)" points="26.486 43.2275 62.989 43.2275 62.989 36.7055 26.486 36.7055"></polygon>
            <polygon id="Stroke-12" stroke="#221F1F" stroke-width="0.917" stroke-linecap="round" stroke-linejoin="round" mask="url(#mask-2)" points="26.486 43.2275 62.989 43.2275 62.989 36.7055 26.486 36.7055"></polygon>
            <polygon id="Fill-13" fill="#FBB348" mask="url(#mask-2)" points="39.443 32.5865 53.037 32.5865 53.037 17.3955 39.443 17.3955"></polygon>
            <polygon id="Fill-14" fill="#D3D4D6" mask="url(#mask-2)" points="16.88 43.5575 23.572 43.5575 23.572 36.7055 16.88 36.7055"></polygon>
            <polygon id="Stroke-15" stroke="#000000" stroke-width="0.923" stroke-linecap="round" stroke-linejoin="round" mask="url(#mask-2)" points="16.88 43.5575 23.572 43.5575 23.572 36.7055 16.88 36.7055"></polygon>
            <path d="M23.3939,28.7285 L21.1979,31.1485 L25.5899,31.1485 L23.3939,28.7285 Z M25.1079,28.8195 C25.8329,29.6185 26.5389,30.3955 27.2839,31.2165 C28.9209,31.1735 30.6369,31.2705 32.4239,31.1565 C30.9779,29.5625 27.5829,26.0925 27.5829,26.0925 C27.5829,26.0925 25.9079,27.9375 25.1079,28.8195 L25.1079,28.8195 Z M16.8769,18.4095 L16.8769,31.1855 L19.6579,31.1855 C20.7719,29.9575 21.9909,28.6145 23.3039,27.1675 C23.7819,27.0605 23.8709,27.9745 24.4669,28.0105 C25.3259,27.0635 26.1999,26.0845 27.0939,25.1295 C27.2739,24.9365 27.5349,24.8365 27.7009,24.7315 C29.7249,26.9615 31.6619,29.0965 33.5549,31.1825 L36.1849,31.1825 L36.1849,18.4095 L16.8769,18.4095 Z M37.1589,32.2565 L15.9079,32.2565 L15.9079,17.4495 C16.9139,17.2505 32.9629,17.1765 37.1589,17.3615 L37.1589,32.2565 Z" id="Fill-16" fill="#000000" mask="url(#mask-2)"></path>
            <path d="M52.2719,54.1704 L27.8949,54.1704 C27.4139,54.1704 27.0239,53.7504 27.0239,53.2334 C27.0239,52.7164 27.4139,52.2964 27.8949,52.2964 L52.2719,52.2964 C52.7529,52.2964 53.1429,52.7164 53.1429,53.2334 C53.1429,53.7504 52.7529,54.1704 52.2719,54.1704" id="Fill-17" fill="#231F20" mask="url(#mask-2)"></path>
            <path d="M40.0834,53.9556 C39.6034,53.9556 39.2124,53.4366 39.2124,52.7966 L39.2124,48.1606 C39.2124,47.5206 39.6034,47.0016 40.0834,47.0016 C40.5634,47.0016 40.9544,47.5206 40.9544,48.1606 L40.9544,52.7966 C40.9544,53.4366 40.5634,53.9556 40.0834,53.9556" id="Fill-18" fill="#231F20" mask="url(#mask-2)"></path>
            <line x1="24.9428" y1="13.3135" x2="64.6598" y2="13.3135" id="Stroke-19" stroke="#231F20" stroke-dasharray="2.586,2.585,2.585,2.585,2.585,2.585" mask="url(#mask-2)"></line>
            <line x1="16.3085" y1="13.3135" x2="20.6255" y2="13.3135" id="Stroke-20" stroke="#231F20" stroke-width="0.936" mask="url(#mask-2)"></line>
        </g>
    </g>
</svg>