<?xml version="1.0" encoding="UTF-8"?>
<svg width="81px" height="65px" viewBox="0 0 81 65" version="1.1" xmlns="http://www.w3.org/2000/svg" xmlns:xlink="http://www.w3.org/1999/xlink">
    <title>icons/visal design</title>
    <defs>
        <polygon id="path-1" points="0 0.2519 52.20028 0.2519 52.20028 52.79989 0 52.79989"></polygon>
        <polygon id="path-3" points="15 53.64854 67.2005 53.64854 67.2005 1.10044 15 1.10044"></polygon>
    </defs>
    <g id="icons/visal-design" stroke="none" stroke-width="1" fill="none" fill-rule="evenodd">
        <g id="Group-20" transform="translate(0.000000, -1.000000)">
            <path d="M79.887951,56.4965 C79.887951,61.19062 62.425161,64.9961 40.883454,64.9961 C19.342395,64.9961 1.878957,61.19062 1.878957,56.4965 C1.878957,51.80278 19.342395,47.99812 40.883454,47.99812 C62.425161,47.99812 79.887951,51.80278 79.887951,56.4965 Z" id="Shape-707-copy-3" fill="#E2A219" style="mix-blend-mode: multiply;"></path>
            <rect id="Rectangle" fill-opacity="0" fill="#D8D8D8" x="0" y="1" width="81" height="65"></rect>
            <g id="Group-3" transform="translate(15.000000, 0.848540)">
                <mask id="mask-2" fill="white">
                    <use xlink:href="#path-1"></use>
                </mask>
                <g id="Clip-2"></g>
                <path d="M47.99058,33.08679 L45.81368,33.08679 L48.29088,30.60959 C50.81208,28.08839 52.20028,24.73779 52.20028,21.17269 C52.20028,14.93459 47.89048,9.69749 42.09678,8.24329 L42.09678,5.30299 L43.78088,5.30299 L43.78088,0.25179 L38.72858,0.25179 L38.72858,5.30299 L40.41268,5.30299 L40.41268,7.92759 C39.90118,7.86709 39.38308,7.82859 38.85618,7.82859 C35.29218,7.82859 31.94048,9.21679 29.42038,11.73689 L26.10058,15.05779 L22.77968,11.73689 C20.25958,9.21679 16.90898,7.82859 13.34388,7.82859 C5.98598,7.82859 -0.00022,13.81479 -0.00022,21.17269 C-0.00022,24.73669 1.38798,28.08729 3.90808,30.60959 L7.04418,33.74569 L0.82808,37.29649 L8.19478,41.50619 L14.80578,41.50619 L26.10058,52.79989 L37.39318,41.50619 L47.99058,41.50619 C50.31158,41.50619 52.20028,39.61749 52.20028,37.29649 C52.20028,34.97549 50.31158,33.08679 47.99058,33.08679" id="Fill-1" fill="#000000" mask="url(#mask-2)"></path>
            </g>
            <mask id="mask-4" fill="white">
                <use xlink:href="#path-3"></use>
            </mask>
            <g id="Clip-5"></g>
            <polygon id="Fill-4" fill="#FFFFFF" mask="url(#mask-4)" points="55.194 4.68644 57.3159 4.68644 57.3159 2.56454 55.194 2.56454"></polygon>
            <polygon id="Fill-6" fill="#FFFFFF" mask="url(#mask-4)" points="23.41951 40.54292 19.22411 38.14492 23.41951 35.74802"></polygon>
            <path d="M20.09916,30.26694 C17.89586,28.06364 16.68476,25.13544 16.68476,22.02134 C16.68476,15.59184 21.91416,10.36134 28.34366,10.36134 C31.45776,10.36134 34.38596,11.57354 36.58816,13.77574 L41.10036,18.28684 L45.61036,13.77574 C47.81366,11.57354 50.74186,10.36134 53.85596,10.36134 C54.38506,10.36134 54.90316,10.40974 55.41356,10.47794 L55.41356,24.67454 C55.41356,28.38814 52.39076,31.40984 48.67716,31.40984 C45.80726,31.40984 43.24646,29.53874 42.32026,26.87234 C43.09466,26.44004 43.62596,25.62164 43.62596,24.67454 C43.62596,23.43924 42.73386,22.41404 41.56236,22.19514 C40.48546,18.66744 37.26796,16.25514 33.52246,16.25514 C28.87936,16.25514 25.10306,20.03144 25.10306,24.67454 L25.10306,27.20014 L23.42006,27.20014 L23.42006,32.25134 L28.47016,32.25134 L28.47016,27.20014 L26.78716,27.20014 L26.78716,24.67454 C26.78716,20.96094 29.80886,17.93814 33.52246,17.93814 C36.39346,17.93814 38.95316,19.80924 39.87826,22.47674 C39.10496,22.90904 38.57476,23.72634 38.57476,24.67454 C38.57476,25.90874 39.46576,26.93504 40.63836,27.15394 C41.71416,30.68164 44.93166,33.09394 48.67716,33.09394 C53.31916,33.09394 57.09656,29.31654 57.09656,24.67454 L57.09656,10.82994 C61.95306,12.23794 65.51596,16.71824 65.51596,22.02244 C65.51596,25.13654 64.30376,28.06474 62.10156,30.26694 L58.43196,33.93544 L23.76766,33.93544 L20.09916,30.26694 Z" id="Fill-7" fill="#FFFFFF" mask="url(#mask-4)"></path>
            <path d="M42.10983,24.67399 C42.10983,25.23059 41.65663,25.68379 41.10003,25.68379 C40.54343,25.68379 40.08913,25.23059 40.08913,24.67399 C40.08913,24.11739 40.54343,23.66419 41.10003,23.66419 C41.65663,23.66419 42.10983,24.11739 42.10983,24.67399" id="Fill-8" fill="#FFFFFF" mask="url(#mask-4)"></path>
            <polygon id="Fill-9" fill="#FFFFFF" mask="url(#mask-4)" points="24.9352 30.73664 26.9559 30.73664 26.9559 28.71594 24.9352 28.71594"></polygon>
            <polygon id="Fill-10" fill="#FFFFFF" mask="url(#mask-4)" points="41.10014 51.26737 32.18684 42.35517 50.01344 42.35517"></polygon>
            <polygon id="Fill-11" fill="#FBB348" mask="url(#mask-4)" points="25.1024 40.67074 55.4129 40.67074 55.4129 35.61954 25.1024 35.61954"></polygon>
            <polygon id="Fill-12" fill="#FFFFFF" mask="url(#mask-4)" points="57.097 40.67074 58.7811 40.67074 58.7811 35.61954 57.097 35.61954"></polygon>
            <path d="M62.99058,40.67074 L60.46388,40.67074 L60.46388,35.61954 L62.99058,35.61954 C64.38318,35.61954 65.51618,36.75254 65.51618,38.14514 C65.51618,39.53774 64.38318,40.67074 62.99058,40.67074" id="Fill-13" fill="#504B46" mask="url(#mask-4)"></path>
            <polygon id="Fill-14" fill="#231F20" mask="url(#mask-4)" points="45.3105 25.51604 46.9935 25.51604 46.9935 23.83194 45.3105 23.83194"></polygon>
            <polygon id="Fill-15" fill="#000000" mask="url(#mask-4)" points="48.6776 25.51604 50.3606 25.51604 50.3606 23.83194 48.6776 23.83194"></polygon>
            <polygon id="Fill-16" fill="#231F20" mask="url(#mask-4)" points="52.0458 25.51604 53.7288 25.51604 53.7288 23.83194 52.0458 23.83194"></polygon>
            <polygon id="Fill-17" fill="#000000" mask="url(#mask-4)" points="35.207 25.51604 36.89 25.51604 36.89 23.83194 35.207 23.83194"></polygon>
            <polygon id="Fill-18" fill="#231F20" mask="url(#mask-4)" points="31.8377 25.51604 33.5218 25.51604 33.5218 23.83194 31.8377 23.83194"></polygon>
            <polygon id="Fill-19" fill="#000000" mask="url(#mask-4)" points="28.4706 25.51604 30.1547 25.51604 30.1547 23.83194 28.4706 23.83194"></polygon>
        </g>
    </g>
</svg>